<svg id="Capa_1" enable-background="new 0 0 511.977 511.977" height="512" viewBox="0 0 511.977 511.977" width="512" xmlns="http://www.w3.org/2000/svg"><g><g><path d="m302.262 235.14 72.178 47.631 126.442-191.072c3.189-4.819 1.862-11.306-2.963-14.49l-63.441-41.866z" fill="#f1eff1"/><path d="m460.688 52.64-132.216 199.797-26.21-17.297 132.216-199.797z" fill="#dfdce0"/><path d="m82.974 426.363 110.522 72.935c14.476 9.553 33.966 5.578 43.532-8.877l146.072-220.737c9.566-14.456 5.586-33.918-8.89-43.471l-110.522-72.935c-75.515-49.833-177.187-29.099-227.09 46.311-49.903 75.411-29.14 176.941 46.376 226.774z" fill="#ccf49f"/><path d="m374.224 226.222-16.773-11.068c1.928 8.132.627 17.008-4.351 24.53l-85.105 128.606c-43.059 65.067-131.571 83.143-196.693 40.168l-18.328-12.095c-3.358-2.216-6.602-4.539-9.742-6.952 10.805 14.074 24.094 26.625 39.742 36.952l110.522 72.935c14.476 9.553 33.966 5.578 43.532-8.878l146.072-220.736c9.563-14.45 5.587-33.918-8.876-43.462z" fill="#b3e59f"/><path d="m214.858 467.016 137.99-208.522c2.232-3.373 1.303-7.914-2.074-10.143l-103.19-68.096c-60.987-40.246-143.693-24.683-184.345 35.986-40.82 60.92-24.101 143.589 37.056 183.947l104.406 68.899c3.377 2.23 7.925 1.302 10.157-2.071z" fill="#f1eff1"/><path d="m350.773 248.352-2.373-1.566-80.405 121.504c-27.427 41.446-73.295 63.818-119.814 63.499l56.52 37.298c3.378 2.229 7.925 1.302 10.157-2.071l137.99-208.521c2.232-3.373 1.303-7.915-2.075-10.143z" fill="#e2dfe3"/><ellipse cx="173.331" cy="289.821" fill="#ccf49f" rx="69.117" ry="69.021"/><path d="m211.437 232.238c-7.262-4.792-15.099-8.02-23.119-9.797 26.113 22.312 32.112 61.063 12.677 90.433-16.246 24.55-45.501 35.342-72.651 29.327 2.162 1.847 4.446 3.596 6.881 5.203 31.847 21.016 74.724 12.272 95.77-19.53s12.289-74.62-19.558-95.636z" fill="#b3e59f"/></g><path d="m502.05 70.949-63.439-41.864c-.001 0-.002-.001-.002-.001l-42.192-27.844c-3.456-2.28-8.109-1.328-10.391 2.129s-1.329 8.109 2.129 10.391l35.926 23.708-13.153 19.875c-.01.015-.022.028-.032.043s-.017.03-.026.044l-84.747 128.064-58.305-38.477c-78.843-52.03-185.373-30.302-237.475 48.432-8.464 12.79-15.163 26.593-19.911 41.026-1.294 3.935.846 8.174 4.781 9.468 3.933 1.292 8.174-.846 9.468-4.781 4.331-13.165 10.444-25.76 18.171-37.436 47.543-71.845 144.756-91.67 216.704-44.19l110.522 72.935c5.331 3.518 8.969 8.896 10.245 15.146 1.275 6.243.04 12.609-3.479 17.926l-146.071 220.738c-7.273 10.987-22.142 14.018-33.146 6.757l-110.522-72.934c-48.728-32.156-75.311-88.207-69.376-146.279.421-4.121-2.578-7.803-6.698-8.224-4.114-.419-7.802 2.578-8.224 6.698-6.505 63.648 22.63 125.081 76.036 160.324l110.522 72.935c17.707 11.705 41.98 7.032 53.917-10.999l202.154-305.483c2.286-3.455 1.339-8.108-2.115-10.394-3.456-2.286-8.108-1.339-10.394 2.115l-39.163 59.181c-2.743-8.188-8.096-15.19-15.423-20.025l-39.697-26.196 11.353-17.155 14.084 9.294c3.422 2.263 8.088 1.36 10.391-2.129 2.282-3.457 1.328-8.109-2.129-10.391l-14.068-9.284 9.043-13.666 14.084 9.294c3.422 2.262 8.087 1.361 10.391-2.129 2.282-3.457 1.329-8.109-2.129-10.391l-14.068-9.284 9.043-13.665 14.084 9.294c3.422 2.263 8.088 1.36 10.391-2.129 2.282-3.457 1.328-8.109-2.129-10.391l-14.068-9.283 9.043-13.666 14.084 9.294c3.422 2.262 8.087 1.361 10.391-2.129 2.282-3.457 1.329-8.109-2.129-10.391l-14.068-9.284 9.043-13.666 14.084 9.294c3.422 2.263 8.088 1.36 10.391-2.129 2.282-3.457 1.328-8.109-2.129-10.391l-14.068-9.284 9.043-13.666 57.187 37.739c1.539 1.104 1.797 2.501.839 4.091l-42.316 63.945c-2.286 3.455-1.339 8.108 2.115 10.394 3.454 2.285 8.107 1.339 10.394-2.115l42.316-63.945c5.441-8.133 3.065-19.561-5.087-24.884zm-286.482 155.029c-35.242-23.256-82.864-13.543-106.155 21.651-22.959 34.693-13.712 82.677 21.681 106.036 34.894 23.029 82.655 13.857 106.155-21.652 23.657-35.748 13.142-83.055-21.681-106.035zm9.172 97.757c-18.732 28.306-57.035 36.116-85.384 17.41-28.512-18.813-36.105-57.022-17.434-85.238 18.732-28.308 57.036-36.118 85.384-17.41 27.808 18.352 35.948 57.263 17.434 85.238zm130.164-81.643-103.19-68.096c-64.69-42.69-152.036-25.612-194.706 38.071-20.845 31.109-28.249 68.498-20.848 105.279 7.408 36.812 28.717 68.456 60.003 89.103l104.407 68.899c6.745 4.459 15.995 2.678 20.542-4.193l137.99-208.521c4.494-6.723 2.526-16.153-4.198-20.542zm-146.209 220.646-104.27-68.81c-27.925-18.428-46.946-46.676-53.559-79.541-6.607-32.834 0-66.207 18.603-93.971 23.898-35.666 63.504-54.94 103.991-54.94 24.059 0 48.435 6.812 69.993 21.039l103.037 67.995z"/></g></svg>