<svg xmlns="http://www.w3.org/2000/svg" viewBox="0 0 64.09 64.09"><defs><style>.cls-1{fill:#ef9014;}.cls-2{fill:#e8d3ba;}.cls-3{opacity:0.15;}</style></defs><title>Tool Ruler</title><g id="Layer_2" data-name="Layer 2"><g id="Layer_1-2" data-name="Layer 1"><path class="cls-1" d="M22.87-2.59H40.79a2,2,0,0,1,2,2V66.25a2,2,0,0,1-2,2H22.87a0,0,0,0,1,0,0V-2.59a0,0,0,0,1,0,0Z" transform="translate(32.83 -13.6) rotate(45)"/><path class="cls-2" d="M25.57-9.64H28a0,0,0,0,1,0,0V61.2a0,0,0,0,1,0,0H25.57a2,2,0,0,1-2-2V-7.64a2,2,0,0,1,2-2Z" transform="translate(25.78 -10.68) rotate(45)"/><g class="cls-3"><rect x="48.71" y="1.01" width="1.11" height="8.86" transform="translate(10.59 36.43) rotate(-45)"/></g><g class="cls-3"><rect x="44.8" y="4.46" width="1.11" height="6.64" transform="translate(7.78 34.35) rotate(-45)"/></g><g class="cls-3"><rect x="42.45" y="7.27" width="1.11" height="8.86" transform="translate(4.33 33.83) rotate(-45)"/></g><g class="cls-3"><rect x="38.54" y="10.72" width="1.11" height="6.64" transform="translate(1.52 31.75) rotate(-45)"/></g><g class="cls-3"><rect x="36.19" y="13.53" width="1.11" height="8.86" transform="translate(-1.94 31.24) rotate(-45)"/></g><g class="cls-3"><rect x="32.27" y="16.98" width="1.11" height="6.64" transform="translate(-4.74 29.16) rotate(-45)"/></g><g class="cls-3"><rect x="29.93" y="19.79" width="1.11" height="8.86" transform="translate(-8.2 28.65) rotate(-45)"/></g><g class="cls-3"><rect x="26.01" y="23.25" width="1.11" height="6.64" transform="translate(-11 26.57) rotate(-45)"/></g><g class="cls-3"><rect x="23.66" y="26.05" width="1.11" height="8.86" transform="translate(-14.46 26.05) rotate(-45)"/></g><g class="cls-3"><rect x="19.75" y="29.51" width="1.11" height="6.64" transform="translate(-17.27 23.97) rotate(-45)"/></g><g class="cls-3"><rect x="17.4" y="32.31" width="1.11" height="8.86" transform="translate(-20.72 23.46) rotate(-45)"/></g><g class="cls-3"><rect x="13.49" y="35.77" width="1.11" height="6.64" transform="translate(-23.53 21.38) rotate(-45)"/></g><g class="cls-3"><rect x="11.14" y="38.57" width="1.11" height="8.86" transform="translate(-26.98 20.86) rotate(-45)"/></g><g class="cls-3"><rect x="7.23" y="42.03" width="1.11" height="6.64" transform="translate(-29.79 18.78) rotate(-45)"/></g><g class="cls-3"><rect x="4.88" y="44.84" width="1.11" height="8.86" transform="translate(-33.24 18.27) rotate(-45)"/></g></g></g></svg>