<?xml version="1.0" encoding="UTF-8" standalone="no"?>
<!--part of the rodentia icon theme by sixsixfive released under CC0 (https://creativecommons.org/publicdomain/zero/1.0/) on openclipart-->
<svg xmlns="http://www.w3.org/2000/svg" xmlns:xlink="http://www.w3.org/1999/xlink" viewBox="0 0 48 48">
 <defs id="0">
  <linearGradient id="2">
   <stop id="H" stop-color="#2e3436"/>
   <stop id="I" offset="1" stop-color="#2e3436" stop-opacity="0"/>
  </linearGradient>
  <linearGradient id="3">
   <stop id="J" stop-color="#d3d7cf"/>
   <stop id="K" offset="1" stop-color="#888a85"/>
  </linearGradient>
  <linearGradient id="4">
   <stop id="L" stop-color="#fff" stop-opacity="0.8"/>
   <stop id="M" offset="1" stop-color="#fff" stop-opacity="0"/>
  </linearGradient>
  <linearGradient id="5">
   <stop id="N" stop-color="#fff"/>
   <stop id="O" offset="1" stop-color="#fff" stop-opacity="0"/>
  </linearGradient>
  <linearGradient id="6">
   <stop id="P" stop-color="#eeeeec"/>
   <stop id="Q" offset="1" stop-color="#d3d7cf"/>
  </linearGradient>
  <linearGradient id="7">
   <stop id="R" stop-color="#888a85"/>
   <stop id="S" offset="1" stop-color="#555753"/>
  </linearGradient>
  <radialGradient cx="24.561" cy="46.614" r="24.561" id="8" xlink:href="#2" gradientUnits="userSpaceOnUse" gradientTransform="matrix(1,0,0,0.1128527,0,41.353562)"/>
  <radialGradient cx="2.962" cy="-6.772" r="21.497" id="9" xlink:href="#7" gradientUnits="userSpaceOnUse" gradientTransform="matrix(0.9260505,0.8654182,1.1780309,-1.2605655,18.246285,-10.456621)"/>
  <linearGradient x1="17.217" y1="-28.3" x2="21.876" y2="31.461" id="A" xlink:href="#5" gradientUnits="userSpaceOnUse"/>
  <linearGradient y1="39.943" x2="0" y2="6.06" id="B" xlink:href="#4" gradientUnits="userSpaceOnUse" gradientTransform="matrix(-1.0088914,0,0,-1.1755128,47.917998,51.077398)"/>
  <radialGradient cx="-11.282" cy="-8.235" r="13.237" id="C" xlink:href="#6" gradientUnits="userSpaceOnUse" gradientTransform="matrix(0.2939992,-1.0471327,2.2899136,0.6429299,10.891976,-20.164311)"/>
  <linearGradient y1="-23.16" x2="0" y2="-43.875" id="D" xlink:href="#4" gradientUnits="userSpaceOnUse"/>
  <radialGradient cx="23.665" cy="18.838" r="12.263" id="E" xlink:href="#3" gradientUnits="userSpaceOnUse" gradientTransform="matrix(-1.3803673,-1.6981821,-1.7732215,1.4413614,82.260966,18.803056)"/>
  <linearGradient y1="4.144" x2="0" y2="18.293" id="F" xlink:href="#4" gradientUnits="userSpaceOnUse"/>
 </defs>
 <g id="1">
  <g transform="translate(0,-1.2894203)" id="G">
   <path d="m 49.122952,46.614086 a 24.561476,2.7718279 0 1 1 -49.122952,0 24.561476,2.7718279 0 1 1 49.122952,0 z" transform="matrix(0.9567829,0,0,1,0.5,-1.8859141)" id="T" opacity="0.8" fill="url(#8)"/>
   <path d="m 43.908066,44.42116 -39.816133,0 c -0.603323,0 -1.089031,-0.485708 -1.089031,-1.089032 l 0,-38.6642565 c 0,-0.6033229 0.485708,-1.0890309 1.089031,-1.0890309 l 37.768521,0 c 0,0 3.136644,3.1366433 3.136644,3.1366433 l 0,36.6166441 c 0,0.603324 -0.485708,1.089032 -1.089032,1.089032 z" id="U" fill="url(#9)" stroke="#2e3436" stroke-linejoin="round" stroke-linecap="round"/>
   <path d="m 4.09375,3.9375 c -0.4319502,0 -0.75,0.2984629 -0.75,0.71875 l 0,27.90625 C 16.674577,27.09866 31.662283,21.537693 44.65625,16.625 l 0,-9.75 C 44.485288,6.7040375 41.889712,4.1084625 41.71875,3.9375 l -37.625,0 z" id="V" opacity="0.6" fill="url(#A)"/>
   <rect width="28.683" height="21.87" x="-38.34" y="-43.921" transform="scale(-1,-1)" id="W" fill="#2e3436"/>
   <rect width="2.048" height="2.048" rx="0.129" x="-42.43" y="-41.931" transform="scale(-1,-1)" id="X" opacity="0.739" fill="#d3d7cf"/>
   <path d="m 43.845448,43.438219 -39.691412,0 c -0.071583,0 -0.129212,-0.05763 -0.129212,-0.129212 l 0,-38.5445005 c 0,-0.071584 0.057629,-0.1292125 0.129212,-0.1292125 l 37.327076,0 c 0,0 2.493548,2.4483025 2.493548,2.4483025 l 0,36.2254105 c 0,0.07158 -0.05763,0.129212 -0.129212,0.129212 z" id="Y" opacity="0.8" fill="none" stroke="url(#B)" stroke-linecap="round" stroke-width="1.024"/>
   <rect width="26.475" height="20.81" x="-37.24" y="-43.921" transform="scale(-1,-1)" id="Z" fill="url(#C)"/>
   <rect width="26.475" height="3.83" x="-37.24" y="-43.921" transform="scale(-1,-1)" id="a" fill="#c00"/>
   <path d="m -36.71875,-43.375 0,19.71875 25.4375,0 0,-19.71875 -25.4375,0 z" transform="scale(-1,-1)" id="b" opacity="0.8" fill="none" stroke="url(#D)"/>
   <path d="m 35.75,3.5907435 0,13.4999995 c 0,0.954948 -0.71589,1.75 -1.625,1.75 l -20.21875,0 c -0.909109,1e-6 -1.65625,-0.795052 -1.65625,-1.75 l 0,-13.4999995 c -10e-7,-2e-7 23.5,0 23.5,0 z m -4.8125,3 -3.59375,0 c -0.426076,0 -0.78125,0.3239232 -0.78125,0.75 l 0,8.7812495 c 0,0.426076 0.355174,0.78125 0.78125,0.78125 l 3.59375,0 c 0.426076,0 0.78125,-0.355174 0.78125,-0.78125 l 0,-8.7812495 c 0,-0.4260765 -0.355174,-0.7499998 -0.78125,-0.75 z" id="c" fill="url(#E)" stroke="#2e3436" stroke-width="1.024"/>
   <path d="m 13.3125,4.65625 0,12.4375 c 0,0.395164 0.310359,0.687501 0.59375,0.6875 l 20.21875,0 c 0.283396,0 0.5625,-0.26892 0.5625,-0.6875 l 0,-12.4375 -21.375,0 z" id="d" opacity="0.8" fill="none" stroke="url(#F)" stroke-width="1.024"/>
  </g>
 </g>
</svg>
